<?xml version="1.0" encoding="UTF-8"?>
<!DOCTYPE svg PUBLIC "-//W3C//DTD SVG 1.1//EN" "http://www.w3.org/Graphics/SVG/1.1/DTD/svg11.dtd">
<!-- Creator: CorelDRAW 2020 (64 Bit) -->
<svg xmlns="http://www.w3.org/2000/svg" xml:space="preserve" width="51.6466mm" height="14.3932mm" version="1.1" style="shape-rendering:geometricPrecision; text-rendering:geometricPrecision; image-rendering:optimizeQuality; fill-rule:evenodd; clip-rule:evenodd"
viewBox="0 0 5164.66 1439.32"
 xmlns:xlink="http://www.w3.org/1999/xlink"
 xmlns:xodm="http://www.corel.com/coreldraw/odm/2003">
 <defs>
  <style type="text/css">
   <![CDATA[
    .fil0 {fill:black}
   ]]>
  </style>
 </defs>
 <g id="Camada_x0020_1">
  <metadata id="CorelCorpID_0Corel-Layer"/>
  <g id="_2673049414192">
   <path class="fil0" d="M534.4 626.92c30.76,40.67 -50.26,111.49 -67.35,233.87 -7.93,56.87 1.89,86.29 40.17,109.91 144.11,88.89 456.81,-241.58 519.63,-259.38 -12,56.86 -50.49,177.15 -60.42,240.74 -3.64,23.17 -2.83,46.5 -4.87,69.78 -2.09,24.46 -9.78,44.57 -11.77,67.14 -2.54,28.56 6.65,43.29 3.12,70.47 -4.31,33.36 -14.92,26.63 -10.22,68.26 126.43,35.51 98.64,-213.19 110.11,-308.68 9.24,-76.91 85.13,-336.68 85.01,-346.41 -73.03,-26.4 -145.19,83.93 -228.34,151.34 -27.01,21.91 -44.63,39.79 -75.53,63.91 -45.8,35.81 -106.23,75.08 -165.07,100.46 -121.16,52.23 -110.12,-16.76 -75.04,-107.95 16.37,-42.55 78.19,-164.35 46.9,-202.25 -60.1,-72.87 -327.59,72.71 -337.06,90.95 -11.42,21.96 28.15,17.51 44.52,13.28 28.05,-7.22 62.87,-30.74 89.66,-44.72 14.57,-7.6 31.41,-14.97 46.7,-20.04 39.16,-12.99 40.93,-2.1 49.85,9.32z"/>
   <path class="fil0" d="M1352.13 589.69c-50.72,21.73 -153.12,28.84 -175.84,73.21 42.94,35.69 117.9,-20.45 177.71,-19.26 18.91,103.77 2.13,188.87 53.52,277.16l48.21 -1.8c16.22,-53.02 -8.04,-219.78 -3.38,-290.71 65.6,-20.39 167.89,-16.75 240.28,-11.16 74.81,5.8 160.17,15.85 187.4,72.34 9.73,72.39 -368.54,256.24 -463.13,289.08 -41.95,14.53 -58.82,11.65 -66.78,52.26 62.55,0.2 47.58,0.41 91.42,-20.83 22.96,-11.1 51.79,-19.96 75.54,-30.6 69.04,-30.93 399.69,-183.73 442.6,-215.78 141.09,-105.42 33.51,-170.65 -106.51,-195.29 -235.44,-41.49 -276.46,1.54 -407.87,-1.72 -3.7,-56.89 -8.33,-183.62 -25.87,-227.4 -90.16,-17.8 -55.9,36.47 -67.3,250.5z"/>
   <path class="fil0" d="M3784.81 801.07c-21.97,10.05 -84.11,11.31 -112.37,20.92 -15.88,5.42 -7.22,2.45 -14.88,7.02 -1.08,94.38 86.22,31.87 142.13,53.16 48.91,123.9 43.67,432.65 235.45,381.69 71.92,-19.11 150.41,-64.12 220.32,-91.71 77.76,-30.67 161.39,-54.53 242.52,-75.85 -10.86,-53.37 -35.8,-38.43 -83.72,-24.27 -121.05,35.77 -157.69,34.11 -311.71,86.61 -96.9,33 -129.53,17.83 -148.9,-79.15 -13.19,-66.22 -38.95,-163.08 -34.2,-230.06 44.78,-3.9 76.85,-12.17 118.6,-21.35 47.34,-10.38 80.58,-5.56 93.22,-51.13 -50.45,-4.86 -199.81,17.42 -224.28,4.37 -18.83,-30.94 -18.79,-121.42 -28.61,-164.22 -10.03,-43.75 -28.08,-119.84 -61.35,-132.03 -106.42,-39.03 -24.15,248.65 -32.22,316z"/>
   <path class="fil0" d="M1472.48 343.93c8.82,34.06 27.47,36.1 93.83,34.96 43.47,-0.73 77.17,1.84 119.38,3.56 83.56,3.35 168.76,-3.68 252.81,-3.18 292.49,1.75 701.09,14.82 997.25,26.02 39.74,1.51 427.02,24.08 454.23,14.06 26.1,-9.61 12.32,-5.76 19.89,-15.61 -6.9,-23.42 -11.18,-21.07 -36.09,-26.16 -196.88,-40.18 -735.26,-57.65 -903.56,-58.12 -170.65,-0.49 -341.31,1.43 -511.76,0.94 -56.99,-0.18 -433.02,-20.49 -485.98,23.53z"/>
   <path class="fil0" d="M3416.4 934.5c-40.09,-15.09 -75.71,-51.53 -109.51,-78.13l-212.14 -160.08c-31.87,-22.55 -77.28,-70.74 -126.75,-67.12 -18.21,65.19 41.25,196.26 47.66,253.27 4.55,40.23 -1.61,56.89 43.15,55.96 51.44,-55.23 -8.86,-152.62 -11.48,-208.09 35.63,12.15 27.82,37.17 91.38,88.21 81.86,65.76 239.79,214.76 350.84,198.95 9.5,-29.34 -15.23,-164.86 -9.38,-228.58 6.7,-72.77 6.47,-161.65 21.82,-230.23 15.56,-69.36 32.71,-138.99 69.34,-183.88 31.45,-38.57 92.6,-92.2 161.73,-91.85l19.93 30.94c136.34,-1.46 56.31,-143.13 -136.22,-46.33 -280.28,140.86 -186.01,464.78 -200.37,666.96z"/>
   <path class="fil0" d="M4224.88 763.38c52.96,25.39 36.18,-30.21 106.35,-26.4 39.36,33.85 46.5,115.27 72.33,165.7 90.58,176.75 264.23,124.9 380.38,0.24 16.14,-17.31 41.4,-52.24 59.06,-65.81 35.36,19.69 57.74,141.93 188.45,248.67 26.97,22.05 49.47,52 94.79,46.46 2.71,-60.18 -40.43,-88.38 -66.59,-120.92l-155.65 -229.91c-22.11,-44.29 -41.81,-86.21 -61.7,-129.81 -117,-3.44 10.83,42.82 -130.31,192.59 -24.85,26.36 -54.53,49.87 -91.65,74.43 -78.3,51.77 -111.98,45.62 -177.01,-88.65 -19.63,-40.61 -26.89,-80.08 -44.89,-121.68 -41.92,-96.81 -190.26,-1.78 -173.56,55.09z"/>
   <path class="fil0" d="M2104.88 635.89c32.39,1.69 77.08,-13.05 101.09,-1.63 16.71,99.78 -102.87,456.41 137.46,347.11 61.54,-27.96 119.39,-75.83 163.64,-115.42l162.47 -123.81c4.11,48.3 4.58,99.31 12.07,146.77 8.82,56.07 27.09,82.79 40.23,127.62l58.93 -6.72c11.65,-62.03 -45.54,-234.26 -55.24,-334.21 -5.68,-58.55 11.71,-85.44 -55.41,-77.4 -22.75,25.78 -39.73,70.35 -66.03,105.39 -45.05,59.99 -221.41,217.07 -313.01,210.75 -65.51,-94.59 65.03,-310.93 -13.6,-350.52 -61.69,-6.41 -163.34,18.67 -172.6,72.07z"/>
   <path class="fil0" d="M1192.7 1375.46c-25.14,-39.71 -119.58,-17.11 -164.16,-15.22 -228.33,9.71 -554.56,-42.79 -748.66,-156.98 -106.81,-62.81 -145.81,-73.97 -176.25,-182.95 -22.14,-7.47 -31.46,-10.9 -58.79,-5.72 -33.53,88.25 69.42,207.39 129.49,254.24 73.15,57.04 186.39,83.11 290.07,107.85 134.53,32.07 418.95,49.23 567.38,36.59 68.31,-5.83 148.63,-3.47 160.92,-37.81z"/>
   <path class="fil0" d="M530.04 1185.77c-1.05,56.75 6.64,76.76 62.45,83.55 41.61,5.04 88.86,-6.44 101.97,-32.04 23.63,-46.24 -21.44,-66.69 -55.93,-74.49 -54.92,-12.39 -72.4,9.2 -108.49,22.98z"/>
   <path class="fil0" d="M1620.68 230.1c19.78,75.25 130.91,84.92 164.64,17.16 -25.8,-79.13 -130.5,-88.76 -164.64,-17.16z"/>
   <path class="fil0" d="M346.94 1229.3c24.07,11.71 53.55,24.26 86,24.08 32.2,-0.14 67.21,-16.63 50.25,-54.03 -16.13,-35.55 -130.36,-59.55 -136.25,29.95z"/>
   <path class="fil0" d="M4402.76 232.42c1.04,-56.75 -6.65,-76.77 -62.46,-83.55 -41.6,-5.04 -88.85,6.44 -101.97,32.04 -23.62,46.24 21.45,66.69 55.94,74.49 54.92,12.39 72.4,-9.2 108.49,-22.98z"/>
   <path class="fil0" d="M4585.85 188.89c-39.42,-19.18 -171.5,-47.83 -136.25,29.95 16.14,35.55 130.37,59.55 136.25,-29.95z"/>
   <path class="fil0" d="M3810.44 63.85c25.14,39.71 119.58,17.1 164.15,15.21 228.34,-9.7 554.56,42.79 748.67,156.99 106.8,62.81 145.81,73.97 176.24,182.95 22.15,7.46 31.47,10.89 58.8,5.71 33.53,-88.24 -69.42,-207.39 -129.5,-254.24 -73.14,-57.03 -186.38,-83.1 -290.06,-107.84 -134.53,-32.07 -418.95,-49.24 -567.38,-36.59 -68.32,5.83 -148.63,3.47 -160.92,37.81z"/>
  </g>
 </g>
</svg>
